<?xml version="1.0" standalone="no"?>
<!DOCTYPE svg PUBLIC "-//W3C//DTD SVG 20010904//EN"
 "http://www.w3.org/TR/2001/REC-SVG-20010904/DTD/svg10.dtd">
<svg version="1.0" xmlns="http://www.w3.org/2000/svg"
 width="16.000000pt" height="16.000000pt" viewBox="0 0 16.000000 16.000000"
 preserveAspectRatio="xMidYMid meet">

<g transform="translate(0.000000,16.000000) scale(0.100000,-0.100000)"
fill="#000000" stroke="none">
<path d="M64 125 c3 -8 2 -15 -3 -15 -5 0 -11 -9 -14 -20 -4 -14 0 -20 11 -21
13 0 11 -3 -4 -9 -29 -11 -40 -30 -18 -30 9 0 23 -8 30 -17 13 -17 15 -17 28
-1 7 10 18 18 25 18 19 0 12 20 -11 30 -16 6 -18 9 -6 9 11 1 15 7 11 21 -3
11 -9 20 -14 20 -5 0 -6 7 -3 15 4 11 0 15 -16 15 -16 0 -20 -4 -16 -15z"/>
</g>
</svg>
